<svg xmlns="http://www.w3.org/2000/svg" viewBox="0 0 800 450" width="800" height="450">
  <defs>
    <linearGradient id="b1" x1="0" y1="0" x2="1" y2="1">
      <stop offset="0%" stop-color="#f2e2d0"/>
      <stop offset="100%" stop-color="#faf6f1"/>
    </linearGradient>
  </defs>
  <rect width="800" height="450" fill="url(#b1)"/>
  <!-- Nose silhouette -->
  <path d="M400 100 Q420 200 410 280 Q405 310 380 330 Q370 335 375 320 Q385 290 390 260 Q395 200 400 100Z" fill="none" stroke="#c4956a" stroke-width="1.5" opacity="0.4"/>
  <path d="M400 100 Q380 200 390 280 Q395 310 420 330 Q430 335 425 320 Q415 290 410 260 Q405 200 400 100Z" fill="none" stroke="#c4956a" stroke-width="1.5" opacity="0.4"/>
  <!-- Thread lines -->
  <line x1="395" y1="140" x2="395" y2="300" stroke="#c4956a" stroke-width="0.5" opacity="0.3" stroke-dasharray="4 4"/>
  <line x1="405" y1="140" x2="405" y2="300" stroke="#c4956a" stroke-width="0.5" opacity="0.3" stroke-dasharray="4 4"/>
  <line x1="400" y1="130" x2="400" y2="310" stroke="#c4956a" stroke-width="0.5" opacity="0.3" stroke-dasharray="4 4"/>
  <!-- Label -->
  <text x="400" y="390" text-anchor="middle" font-family="serif" font-size="14" fill="#1a1f3a" opacity="0.5" letter-spacing="3">NOSE THREAD LIFT GUIDE</text>
  <text x="400" y="415" text-anchor="middle" font-family="sans-serif" font-size="10" fill="#c4956a" opacity="0.6" letter-spacing="1">NYC CLINIC BLOG</text>
</svg>
